<mxfile host="app.diagrams.net" agent="Mozilla/5.0 (X11; Linux x86_64) AppleWebKit/537.36 (KHTML, like Gecko) Chrome/128.0.0.0 Safari/537.36" version="24.7.10">
  <diagram name="Page-1" id="yLORRlP5XQooo8Z9w_b7">
    <mxGraphModel dx="1323" dy="780" grid="1" gridSize="10" guides="1" tooltips="1" connect="1" arrows="1" fold="1" page="1" pageScale="1" pageWidth="850" pageHeight="1100" math="0" shadow="0">
      <root>
        <mxCell id="0" />
        <mxCell id="1" parent="0" />
        <mxCell id="fFlOB0X7pvcrMTOyx-TN-1" value="Payment Method" style="shape=table;startSize=30;container=1;collapsible=1;childLayout=tableLayout;fixedRows=1;rowLines=0;fontStyle=1;align=center;resizeLast=1;html=1;" vertex="1" parent="1">
          <mxGeometry x="140" y="340" width="180" height="190" as="geometry" />
        </mxCell>
        <mxCell id="fFlOB0X7pvcrMTOyx-TN-2" value="" style="shape=tableRow;horizontal=0;startSize=0;swimlaneHead=0;swimlaneBody=0;fillColor=none;collapsible=0;dropTarget=0;points=[[0,0.5],[1,0.5]];portConstraint=eastwest;top=0;left=0;right=0;bottom=1;" vertex="1" parent="fFlOB0X7pvcrMTOyx-TN-1">
          <mxGeometry y="30" width="180" height="70" as="geometry" />
        </mxCell>
        <mxCell id="fFlOB0X7pvcrMTOyx-TN-3" value="PK" style="shape=partialRectangle;connectable=0;fillColor=none;top=0;left=0;bottom=0;right=0;fontStyle=1;overflow=hidden;whiteSpace=wrap;html=1;" vertex="1" parent="fFlOB0X7pvcrMTOyx-TN-2">
          <mxGeometry width="30" height="70" as="geometry">
            <mxRectangle width="30" height="70" as="alternateBounds" />
          </mxGeometry>
        </mxCell>
        <mxCell id="fFlOB0X7pvcrMTOyx-TN-4" value="UniqueID" style="shape=partialRectangle;connectable=0;fillColor=none;top=0;left=0;bottom=0;right=0;align=left;spacingLeft=6;fontStyle=5;overflow=hidden;whiteSpace=wrap;html=1;" vertex="1" parent="fFlOB0X7pvcrMTOyx-TN-2">
          <mxGeometry x="30" width="150" height="70" as="geometry">
            <mxRectangle width="150" height="70" as="alternateBounds" />
          </mxGeometry>
        </mxCell>
        <mxCell id="fFlOB0X7pvcrMTOyx-TN-5" value="" style="shape=tableRow;horizontal=0;startSize=0;swimlaneHead=0;swimlaneBody=0;fillColor=none;collapsible=0;dropTarget=0;points=[[0,0.5],[1,0.5]];portConstraint=eastwest;top=0;left=0;right=0;bottom=0;" vertex="1" parent="fFlOB0X7pvcrMTOyx-TN-1">
          <mxGeometry y="100" width="180" height="30" as="geometry" />
        </mxCell>
        <mxCell id="fFlOB0X7pvcrMTOyx-TN-6" value="" style="shape=partialRectangle;connectable=0;fillColor=none;top=0;left=0;bottom=0;right=0;editable=1;overflow=hidden;whiteSpace=wrap;html=1;" vertex="1" parent="fFlOB0X7pvcrMTOyx-TN-5">
          <mxGeometry width="30" height="30" as="geometry">
            <mxRectangle width="30" height="30" as="alternateBounds" />
          </mxGeometry>
        </mxCell>
        <mxCell id="fFlOB0X7pvcrMTOyx-TN-7" value="Visa 1234" style="shape=partialRectangle;connectable=0;fillColor=none;top=0;left=0;bottom=0;right=0;align=left;spacingLeft=6;overflow=hidden;whiteSpace=wrap;html=1;" vertex="1" parent="fFlOB0X7pvcrMTOyx-TN-5">
          <mxGeometry x="30" width="150" height="30" as="geometry">
            <mxRectangle width="150" height="30" as="alternateBounds" />
          </mxGeometry>
        </mxCell>
        <mxCell id="fFlOB0X7pvcrMTOyx-TN-8" value="" style="shape=tableRow;horizontal=0;startSize=0;swimlaneHead=0;swimlaneBody=0;fillColor=none;collapsible=0;dropTarget=0;points=[[0,0.5],[1,0.5]];portConstraint=eastwest;top=0;left=0;right=0;bottom=0;" vertex="1" parent="fFlOB0X7pvcrMTOyx-TN-1">
          <mxGeometry y="130" width="180" height="30" as="geometry" />
        </mxCell>
        <mxCell id="fFlOB0X7pvcrMTOyx-TN-9" value="" style="shape=partialRectangle;connectable=0;fillColor=none;top=0;left=0;bottom=0;right=0;editable=1;overflow=hidden;whiteSpace=wrap;html=1;" vertex="1" parent="fFlOB0X7pvcrMTOyx-TN-8">
          <mxGeometry width="30" height="30" as="geometry">
            <mxRectangle width="30" height="30" as="alternateBounds" />
          </mxGeometry>
        </mxCell>
        <mxCell id="fFlOB0X7pvcrMTOyx-TN-10" value="MasterCard 5678" style="shape=partialRectangle;connectable=0;fillColor=none;top=0;left=0;bottom=0;right=0;align=left;spacingLeft=6;overflow=hidden;whiteSpace=wrap;html=1;" vertex="1" parent="fFlOB0X7pvcrMTOyx-TN-8">
          <mxGeometry x="30" width="150" height="30" as="geometry">
            <mxRectangle width="150" height="30" as="alternateBounds" />
          </mxGeometry>
        </mxCell>
        <mxCell id="fFlOB0X7pvcrMTOyx-TN-11" value="" style="shape=tableRow;horizontal=0;startSize=0;swimlaneHead=0;swimlaneBody=0;fillColor=none;collapsible=0;dropTarget=0;points=[[0,0.5],[1,0.5]];portConstraint=eastwest;top=0;left=0;right=0;bottom=0;" vertex="1" parent="fFlOB0X7pvcrMTOyx-TN-1">
          <mxGeometry y="160" width="180" height="30" as="geometry" />
        </mxCell>
        <mxCell id="fFlOB0X7pvcrMTOyx-TN-12" value="" style="shape=partialRectangle;connectable=0;fillColor=none;top=0;left=0;bottom=0;right=0;editable=1;overflow=hidden;whiteSpace=wrap;html=1;" vertex="1" parent="fFlOB0X7pvcrMTOyx-TN-11">
          <mxGeometry width="30" height="30" as="geometry">
            <mxRectangle width="30" height="30" as="alternateBounds" />
          </mxGeometry>
        </mxCell>
        <mxCell id="fFlOB0X7pvcrMTOyx-TN-13" value="AmericanExpress7895" style="shape=partialRectangle;connectable=0;fillColor=none;top=0;left=0;bottom=0;right=0;align=left;spacingLeft=6;overflow=hidden;whiteSpace=wrap;html=1;" vertex="1" parent="fFlOB0X7pvcrMTOyx-TN-11">
          <mxGeometry x="30" width="150" height="30" as="geometry">
            <mxRectangle width="150" height="30" as="alternateBounds" />
          </mxGeometry>
        </mxCell>
        <mxCell id="fFlOB0X7pvcrMTOyx-TN-14" value="Website Link" style="shape=table;startSize=30;container=1;collapsible=1;childLayout=tableLayout;fixedRows=1;rowLines=0;fontStyle=1;align=center;resizeLast=1;html=1;whiteSpace=wrap;" vertex="1" parent="1">
          <mxGeometry x="440" y="350" width="270" height="140" as="geometry" />
        </mxCell>
        <mxCell id="fFlOB0X7pvcrMTOyx-TN-15" value="" style="shape=tableRow;horizontal=0;startSize=0;swimlaneHead=0;swimlaneBody=0;fillColor=none;collapsible=0;dropTarget=0;points=[[0,0.5],[1,0.5]];portConstraint=eastwest;top=0;left=0;right=0;bottom=0;html=1;" vertex="1" parent="fFlOB0X7pvcrMTOyx-TN-14">
          <mxGeometry y="30" width="270" height="30" as="geometry" />
        </mxCell>
        <mxCell id="fFlOB0X7pvcrMTOyx-TN-16" value="PK,FK1" style="shape=partialRectangle;connectable=0;fillColor=none;top=0;left=0;bottom=0;right=0;fontStyle=1;overflow=hidden;html=1;whiteSpace=wrap;" vertex="1" parent="fFlOB0X7pvcrMTOyx-TN-15">
          <mxGeometry width="60" height="30" as="geometry">
            <mxRectangle width="60" height="30" as="alternateBounds" />
          </mxGeometry>
        </mxCell>
        <mxCell id="fFlOB0X7pvcrMTOyx-TN-17" value="Row 1" style="shape=partialRectangle;connectable=0;fillColor=none;top=0;left=0;bottom=0;right=0;align=left;spacingLeft=6;fontStyle=5;overflow=hidden;html=1;whiteSpace=wrap;" vertex="1" parent="fFlOB0X7pvcrMTOyx-TN-15">
          <mxGeometry x="60" width="210" height="30" as="geometry">
            <mxRectangle width="210" height="30" as="alternateBounds" />
          </mxGeometry>
        </mxCell>
        <mxCell id="fFlOB0X7pvcrMTOyx-TN-18" value="" style="shape=tableRow;horizontal=0;startSize=0;swimlaneHead=0;swimlaneBody=0;fillColor=none;collapsible=0;dropTarget=0;points=[[0,0.5],[1,0.5]];portConstraint=eastwest;top=0;left=0;right=0;bottom=1;html=1;" vertex="1" parent="fFlOB0X7pvcrMTOyx-TN-14">
          <mxGeometry y="60" width="270" height="20" as="geometry" />
        </mxCell>
        <mxCell id="fFlOB0X7pvcrMTOyx-TN-19" value="" style="shape=partialRectangle;connectable=0;fillColor=none;top=0;left=0;bottom=0;right=0;fontStyle=1;overflow=hidden;html=1;whiteSpace=wrap;" vertex="1" parent="fFlOB0X7pvcrMTOyx-TN-18">
          <mxGeometry width="60" height="20" as="geometry">
            <mxRectangle width="60" height="20" as="alternateBounds" />
          </mxGeometry>
        </mxCell>
        <mxCell id="fFlOB0X7pvcrMTOyx-TN-20" value="" style="shape=partialRectangle;connectable=0;fillColor=none;top=0;left=0;bottom=0;right=0;align=left;spacingLeft=6;fontStyle=5;overflow=hidden;html=1;whiteSpace=wrap;" vertex="1" parent="fFlOB0X7pvcrMTOyx-TN-18">
          <mxGeometry x="60" width="210" height="20" as="geometry">
            <mxRectangle width="210" height="20" as="alternateBounds" />
          </mxGeometry>
        </mxCell>
        <mxCell id="fFlOB0X7pvcrMTOyx-TN-21" value="" style="shape=tableRow;horizontal=0;startSize=0;swimlaneHead=0;swimlaneBody=0;fillColor=none;collapsible=0;dropTarget=0;points=[[0,0.5],[1,0.5]];portConstraint=eastwest;top=0;left=0;right=0;bottom=0;html=1;" vertex="1" parent="fFlOB0X7pvcrMTOyx-TN-14">
          <mxGeometry y="80" width="270" height="30" as="geometry" />
        </mxCell>
        <mxCell id="fFlOB0X7pvcrMTOyx-TN-22" value="" style="shape=partialRectangle;connectable=0;fillColor=none;top=0;left=0;bottom=0;right=0;editable=1;overflow=hidden;html=1;whiteSpace=wrap;" vertex="1" parent="fFlOB0X7pvcrMTOyx-TN-21">
          <mxGeometry width="60" height="30" as="geometry">
            <mxRectangle width="60" height="30" as="alternateBounds" />
          </mxGeometry>
        </mxCell>
        <mxCell id="fFlOB0X7pvcrMTOyx-TN-23" value="https://rakbank.simplify.com/1" style="shape=partialRectangle;connectable=0;fillColor=none;top=0;left=0;bottom=0;right=0;align=left;spacingLeft=6;overflow=hidden;html=1;whiteSpace=wrap;" vertex="1" parent="fFlOB0X7pvcrMTOyx-TN-21">
          <mxGeometry x="60" width="210" height="30" as="geometry">
            <mxRectangle width="210" height="30" as="alternateBounds" />
          </mxGeometry>
        </mxCell>
        <mxCell id="fFlOB0X7pvcrMTOyx-TN-24" value="" style="shape=tableRow;horizontal=0;startSize=0;swimlaneHead=0;swimlaneBody=0;fillColor=none;collapsible=0;dropTarget=0;points=[[0,0.5],[1,0.5]];portConstraint=eastwest;top=0;left=0;right=0;bottom=0;html=1;" vertex="1" parent="fFlOB0X7pvcrMTOyx-TN-14">
          <mxGeometry y="110" width="270" height="30" as="geometry" />
        </mxCell>
        <mxCell id="fFlOB0X7pvcrMTOyx-TN-25" value="" style="shape=partialRectangle;connectable=0;fillColor=none;top=0;left=0;bottom=0;right=0;editable=1;overflow=hidden;html=1;whiteSpace=wrap;" vertex="1" parent="fFlOB0X7pvcrMTOyx-TN-24">
          <mxGeometry width="60" height="30" as="geometry">
            <mxRectangle width="60" height="30" as="alternateBounds" />
          </mxGeometry>
        </mxCell>
        <mxCell id="fFlOB0X7pvcrMTOyx-TN-26" value="https://rakbank.simplify.com/2" style="shape=partialRectangle;connectable=0;fillColor=none;top=0;left=0;bottom=0;right=0;align=left;spacingLeft=6;overflow=hidden;html=1;whiteSpace=wrap;" vertex="1" parent="fFlOB0X7pvcrMTOyx-TN-24">
          <mxGeometry x="60" width="210" height="30" as="geometry">
            <mxRectangle width="210" height="30" as="alternateBounds" />
          </mxGeometry>
        </mxCell>
        <mxCell id="fFlOB0X7pvcrMTOyx-TN-27" value="" style="image;aspect=fixed;perimeter=ellipsePerimeter;html=1;align=center;shadow=0;dashed=0;spacingTop=3;image=img/lib/active_directory/databases.svg;" vertex="1" parent="1">
          <mxGeometry x="290" y="170" width="142.86" height="140" as="geometry" />
        </mxCell>
        <mxCell id="fFlOB0X7pvcrMTOyx-TN-28" style="edgeStyle=orthogonalEdgeStyle;rounded=0;orthogonalLoop=1;jettySize=auto;html=1;exitX=1;exitY=0.5;exitDx=0;exitDy=0;entryX=0;entryY=0.5;entryDx=0;entryDy=0;" edge="1" parent="1" source="fFlOB0X7pvcrMTOyx-TN-5" target="fFlOB0X7pvcrMTOyx-TN-21">
          <mxGeometry relative="1" as="geometry" />
        </mxCell>
        <mxCell id="fFlOB0X7pvcrMTOyx-TN-29" value="&lt;font style=&quot;font-size: 36px;&quot;&gt;هيكلة قاعدة البيانات&lt;/font&gt;" style="text;html=1;align=center;verticalAlign=middle;whiteSpace=wrap;rounded=0;" vertex="1" parent="1">
          <mxGeometry x="160" y="60" width="440" height="90" as="geometry" />
        </mxCell>
        <mxCell id="fFlOB0X7pvcrMTOyx-TN-43" value="Payments of today" style="swimlane;fontStyle=0;childLayout=stackLayout;horizontal=1;startSize=26;horizontalStack=0;resizeParent=1;resizeParentMax=0;resizeLast=0;collapsible=1;marginBottom=0;align=center;fontSize=14;" vertex="1" parent="1">
          <mxGeometry x="360" y="640" width="210" height="116" as="geometry" />
        </mxCell>
        <mxCell id="fFlOB0X7pvcrMTOyx-TN-44" value="visa0-&amp;gt;website1" style="text;strokeColor=none;fillColor=none;spacingLeft=4;spacingRight=4;overflow=hidden;rotatable=0;points=[[0,0.5],[1,0.5]];portConstraint=eastwest;fontSize=12;whiteSpace=wrap;html=1;" vertex="1" parent="fFlOB0X7pvcrMTOyx-TN-43">
          <mxGeometry y="26" width="210" height="30" as="geometry" />
        </mxCell>
        <mxCell id="fFlOB0X7pvcrMTOyx-TN-45" value="visa0-&amp;gt;website2" style="text;strokeColor=none;fillColor=none;spacingLeft=4;spacingRight=4;overflow=hidden;rotatable=0;points=[[0,0.5],[1,0.5]];portConstraint=eastwest;fontSize=12;whiteSpace=wrap;html=1;" vertex="1" parent="fFlOB0X7pvcrMTOyx-TN-43">
          <mxGeometry y="56" width="210" height="30" as="geometry" />
        </mxCell>
        <mxCell id="fFlOB0X7pvcrMTOyx-TN-46" value="visa3-&amp;gt;website3" style="text;strokeColor=none;fillColor=none;spacingLeft=4;spacingRight=4;overflow=hidden;rotatable=0;points=[[0,0.5],[1,0.5]];portConstraint=eastwest;fontSize=12;whiteSpace=wrap;html=1;" vertex="1" parent="fFlOB0X7pvcrMTOyx-TN-43">
          <mxGeometry y="86" width="210" height="30" as="geometry" />
        </mxCell>
        <mxCell id="fFlOB0X7pvcrMTOyx-TN-47" value="&lt;font style=&quot;font-size: 23px;&quot;&gt;هذا الجدول يمثل عمليات الدفع التي ستحصل اليوم .. كل موقع مربوط ببطاقة حسب مدخلات ال CSV&lt;/font&gt;" style="text;html=1;whiteSpace=wrap;overflow=hidden;rounded=0;align=right;" vertex="1" parent="1">
          <mxGeometry x="20" y="640" width="320" height="194" as="geometry" />
        </mxCell>
        <mxCell id="fFlOB0X7pvcrMTOyx-TN-48" value="&lt;h1 style=&quot;margin-top: 0px;&quot;&gt;&lt;span style=&quot;font-weight: normal;&quot;&gt;هذا الجدول يحتوي على جميع البطاقات المدحلة&lt;/span&gt;&lt;/h1&gt;" style="text;html=1;whiteSpace=wrap;overflow=hidden;rounded=0;align=right;" vertex="1" parent="1">
          <mxGeometry x="70" y="200" width="180" height="120" as="geometry" />
        </mxCell>
        <mxCell id="fFlOB0X7pvcrMTOyx-TN-49" value="&lt;font style=&quot;font-size: 25px;&quot;&gt;هذا الموقع يحتوي على كل الروابط المدخلة&lt;/font&gt;" style="text;html=1;whiteSpace=wrap;overflow=hidden;rounded=0;align=right;" vertex="1" parent="1">
          <mxGeometry x="500" y="220" width="180" height="120" as="geometry" />
        </mxCell>
      </root>
    </mxGraphModel>
  </diagram>
</mxfile>
